<?xml version="1.0" standalone="no"?>
<!DOCTYPE svg PUBLIC "-//W3C//DTD SVG 20010904//EN"
 "http://www.w3.org/TR/2001/REC-SVG-20010904/DTD/svg10.dtd">
<svg version="1.0" xmlns="http://www.w3.org/2000/svg"
 width="180.000000pt" height="180.000000pt" viewBox="0 0 180.000000 180.000000"
 preserveAspectRatio="xMidYMid meet">
<metadata>
Created by potrace 1.11, written by Peter Selinger 2001-2013
</metadata>
<g transform="translate(0.000000,180.000000) scale(0.100000,-0.100000)"
fill="#000000" stroke="none">
<path d="M789 1796 c-2 -2 -28 -7 -58 -10 -30 -4 -60 -11 -66 -16 -7 -5 -15
-7 -18 -4 -3 3 -12 2 -19 -2 -7 -5 -17 -9 -23 -10 -5 -1 -23 -8 -40 -15 -16
-7 -33 -12 -37 -11 -5 1 -8 -2 -8 -8 0 -5 -3 -9 -7 -8 -12 4 -113 -54 -113
-64 0 -4 -4 -7 -9 -5 -20 5 -161 -125 -218 -203 -52 -71 -115 -185 -106 -193
3 -4 1 -7 -6 -7 -7 0 -9 -4 -6 -10 3 -5 1 -10 -6 -10 -7 0 -10 -3 -6 -6 3 -3
-3 -30 -13 -60 -11 -30 -16 -54 -13 -54 3 0 0 -6 -6 -14 -8 -9 -10 -70 -7
-197 3 -174 5 -189 34 -275 53 -158 124 -269 241 -378 24 -23 52 -49 62 -58 9
-9 20 -14 23 -10 3 3 6 0 6 -6 0 -7 5 -12 12 -12 6 0 19 -6 27 -14 23 -20 110
-66 156 -83 124 -46 174 -53 355 -49 124 3 187 9 218 20 23 8 42 13 42 10 0
-2 10 1 23 8 12 7 24 13 27 13 3 1 22 9 44 18 21 9 42 17 47 17 5 0 9 4 9 9 0
5 14 14 30 21 17 7 30 17 30 22 0 5 5 6 10 3 6 -3 10 -1 10 4 0 6 5 11 10 11
23 0 152 125 206 200 72 99 139 248 160 355 13 65 10 315 -5 371 -7 29 -14 58
-15 65 -3 14 -9 32 -26 74 -19 49 -77 158 -93 176 -10 10 -15 19 -12 19 9 0
-37 52 -106 121 -62 61 -194 158 -222 163 -6 1 -23 8 -37 16 -14 8 -28 14 -32
15 -3 0 -10 3 -14 8 -4 4 -18 7 -31 7 -13 0 -23 5 -23 11 0 6 -6 9 -14 6 -7
-3 -19 0 -25 6 -6 6 -11 8 -11 5 0 -4 -15 -2 -32 3 -32 10 -291 23 -299 15z"/>
</g>
</svg>
